# xmcd CD database file
# Copyright 1993-1996 (C) Ti Kan
#
# Track frame offsets:
#    183
#    16175
#    29918
#    42273
#    60518
#    72055
#    85078
#    101728
#    116793
#    132190
#
# Disc length: 2003 seconds
#
# Revision: 0
# Processed by: cddbd v1.4b41PL1 Copyright (c) Steve Scherf et al.
# Submitted via: MyCDplayer 2.1.4  (wjohn@fix.net)
#
DISCID=8307d10a
DTITLE=Highway 101 - Paint the Town
DYEAR=1900
DGENRE=
TTITLE0=I Can't Love You Baby
TTITLE1=If Love had a Heart
TTITLE2=While You Slept Last Night
TTITLE3=This Side of Goodbye
TTITLE4=Walkin' Talkin' Cryin', Barely Beatin' Broken
TTITLE5=I'll Paint the Town
TTITLE6=Rough and Tumble Heart
TTITLE7=Midnight Angel
TTITLE8=Who's Lonely Now
TTITLE9=Sweet Baby James
EXTD=
EXTT0=
EXTT1=
EXTT2=
EXTT3=
EXTT4=
EXTT5=
EXTT6=
EXTT7=
EXTT8=
EXTT9=
PLAYORDER=
